Coordinates
version=1
nRows=8
nColumns=36
inDegrees=yes

Units are S.I. units (second, meters, Newtons, ...)
If the header above contains a line with 'inDegrees', this indicates whether rotational values are in degrees (yes) or radians (no).

endheader
time	pelvis_tilt	pelvis_list	pelvis_rotation	pelvis_tx	pelvis_ty	pelvis_tz	hip_flexion_r	hip_adduction_r	hip_rotation_r	knee_angle_r	knee_angle_r_beta	ankle_angle_r	subtalar_angle_r	mtp_angle_r	hip_flexion_l	hip_adduction_l	hip_rotation_l	knee_angle_l	knee_angle_l_beta	ankle_angle_l	subtalar_angle_l	mtp_angle_l	lumbar_extension	lumbar_bending	lumbar_rotation	arm_flex_r	arm_add_r	arm_rot_r	elbow_flex_r	pro_sup_r	arm_flex_l	arm_add_l	arm_rot_l	elbow_flex_l	pro_sup_l
      0.00000000	      1.64624357	      3.42167724	     92.20319656	     -0.24287913	      0.92835437	      1.01756634	     23.92553156	      1.47386402	    -11.18189987	     22.07790573	      0.38533215	     -5.35500457	     -2.69038310	     -7.58061424	    -18.21162565	     -2.74821979	    -11.61903606	     27.46545531	      0.47936263	     -3.82598595	      9.57409483	     -7.58061424	    -14.53203316	      2.74558012	     -5.15796338	     -7.86856896	     -6.71850282	    -28.77242971	     58.51107348	    103.21224522	     19.61882485	     -9.92783450	    -15.52728504	     49.05521464	     88.66023051
      0.01000000	      2.24797755	      3.97458838	     91.84157519	     -0.24074202	      0.92995940	      1.00160362	     23.12142624	      2.64243767	     -9.33015168	     23.50062759	      0.41016333	     -5.01791086	     -5.13188664	     -7.55968350	    -18.25545849	     -3.67031362	    -11.52630874	     29.56427287	      0.51599390	     -8.08940264	      8.04419446	     -7.55968350	    -14.86441622	      3.31772789	     -4.77830577	     -7.40628472	     -6.71928697	    -28.77433857	     57.59296056	    104.12209247	     18.83200332	     -9.66752602	    -16.00395308	     49.25475752	     86.91084365
      0.02000000	      2.94928818	      4.26075397	     91.52054735	     -0.23838883	      0.93127383	      0.98629921	     22.45746331	      4.03743457	     -7.43381384	     24.66086364	      0.43041327	     -4.25182083	     -6.83935277	     -7.53662664	    -17.67472588	     -4.83758295	    -11.43588756	     32.07842033	      0.55987405	    -13.24698021	      6.80651075	     -7.53662664	    -14.98898138	      3.91567254	     -4.36240345	     -6.94278151	     -6.58487694	    -28.94344980	     56.75594173	    106.16628772	     18.16838814	     -9.36491762	    -16.92784995	     49.35974354	     89.88210539
      0.03000000	      3.49864441	      4.62572976	     91.18095887	     -0.23649689	      0.93288038	      0.97106382	     21.45666130	      5.13574748	     -6.20432715	     25.42543329	      0.44375752	     -3.08868862	     -8.47890768	     -7.52974591	    -17.04052711	     -5.74573377	    -11.09335111	     34.61953576	      0.60422488	    -17.74725736	      5.71719477	     -7.52974591	    -15.18362845	      4.42946552	     -4.01248384	     -6.51345299	     -6.62393336	    -28.68718202	     56.09705889	    105.62522714	     17.35442391	     -9.16458978	    -17.26827404	     49.39652940	     88.75160039
      0.04000000	      3.87409364	      4.75658191	     91.06186560	     -0.23545722	      0.93419292	      0.95652823	     20.65861026	      5.76391139	     -5.67906115	     26.06869325	      0.45498453	     -2.02991937	     -9.21237043	     -7.52746304	    -15.81836818	     -6.36144496	    -10.05748049	     37.50912657	      0.65465776	    -21.24750156	      4.86011905	     -7.52746304	    -15.21972690	      4.82577995	     -3.73721718	     -6.18230111	     -6.70439148	    -28.47315753	     55.64888317	    104.70445013	     16.63399682	     -8.92839964	    -17.46502294	     49.42869158	     88.32325760
      0.05000000	      4.21677111	      4.65480310	     91.16661325	     -0.23470505	      0.93511255	      0.94228516	     20.05095574	      6.22381401	     -5.59691195	     26.57580601	      0.46383532	     -0.71085093	     -9.19666964	     -7.52243777	    -14.08642997	     -7.00521007	     -8.97173743	     40.68516110	      0.71009002	    -24.29774253	      3.62109829	     -7.52243777	    -14.95168327	      5.18248770	     -3.64637430	     -5.84910980	     -6.64658821	    -28.49792204	     55.27349424	    107.00689286	     16.14041345	     -8.40061502	    -18.32839983	     48.95838576	     89.75305700
      0.06000000	      4.54452995	      4.80042577	     91.35961364	     -0.23447515	      0.93677487	      0.92831175	     18.91139951	      6.61581177	     -5.80408068	     26.53537282	      0.46312962	      0.15235051	     -9.29815532	     -7.52142714	    -12.55889741	     -7.64672804	     -8.02649472	     43.79683381	      0.76439895	    -27.51823019	      1.09287252	     -7.52142714	    -15.04465141	      5.58618089	     -3.49016555	     -5.64914839	     -6.70237317	    -28.37167117	     55.22204185	    106.68300317	     15.69388167	     -8.08584123	    -18.37646772	     48.55158762	     89.64681845
      0.07000000	      4.64298598	      4.82235378	     91.65612430	     -0.23446959	      0.93867222	      0.91466627	     17.82531869	      6.68110784	     -6.32217393	     26.31946555	      0.45936133	      1.17001111	     -8.81636307	     -7.52038481	    -10.77443189	     -8.00975156	     -7.02459192	     46.88525818	      0.81830213	    -30.76875057	     -2.12123733	     -7.52038481	    -15.00208246	      5.73606309	     -3.47280022	     -5.31664492	     -6.68503621	    -28.29276152	     54.98412355	    106.79392632	     15.33978688	     -7.67358942	    -18.74365640	     47.87981756	     89.74649950
